<?xml version="1.0" standalone="no"?>
<!DOCTYPE svg PUBLIC "-//W3C//DTD SVG 20010904//EN"
 "http://www.w3.org/TR/2001/REC-SVG-20010904/DTD/svg10.dtd">
<svg version="1.0" xmlns="http://www.w3.org/2000/svg"
 width="1280.000000pt" height="1161.000000pt" viewBox="0 0 1280.000000 1161.000000"
 preserveAspectRatio="xMidYMid meet">
<metadata>
Created by potrace 1.15, written by Peter Selinger 2001-2017
</metadata>
<g transform="translate(0.000000,1161.000000) scale(0.100000,-0.100000)"
fill="#fff" stroke="none">
<path d="M6985 11595 c-73 -38 -125 -132 -125 -229 0 -96 81 -872 106 -1016
30 -172 42 -408 26 -526 -17 -126 -45 -190 -111 -255 -76 -74 -143 -101 -271
-106 -121 -6 -178 11 -320 96 -141 83 -216 106 -329 98 -47 -3 -113 -15 -145
-27 -120 -41 -246 -128 -281 -193 -48 -89 27 -129 273 -145 191 -13 243 -45
517 -312 184 -179 217 -205 575 -450 279 -191 333 -241 371 -340 16 -43 19
-79 19 -253 0 -216 12 -348 60 -712 25 -182 32 -282 37 -475 6 -271 2 -376
-62 -1750 -61 -1281 -61 -1281 -56 -1286 2 -2 379 -4 836 -4 l832 0 7 37 c20
125 -11 825 -70 1548 -13 171 -36 454 -49 630 -29 371 -33 414 -85 795 -60
440 -88 665 -111 910 -31 336 -21 429 76 719 60 180 84 280 114 476 36 239 44
357 36 600 -9 316 2 354 145 511 77 84 88 102 200 331 65 133 121 255 125 271
17 81 -58 192 -129 192 -59 0 -98 -44 -356 -396 -93 -127 -178 -210 -231 -224
-80 -22 -157 9 -192 75 -20 39 -21 50 -16 345 6 454 3 649 -10 698 -16 56 -71
117 -127 138 -38 15 -51 15 -86 4 -53 -15 -103 -65 -117 -115 -7 -26 -9 -92
-5 -190 9 -204 -20 -721 -42 -756 -11 -18 -42 21 -68 85 -39 98 -54 195 -71
447 -22 329 -58 565 -101 654 -56 118 -214 122 -267 7 -21 -46 -22 -59 -22
-412 1 -334 2 -375 23 -486 12 -67 22 -139 22 -160 0 -48 -23 -84 -54 -84 -47
0 -93 79 -130 222 -31 122 -112 578 -131 743 -17 147 -37 200 -96 247 -44 36
-94 44 -134 23z"/>
<path d="M1465 9390 c-35 -37 -64 -38 -95 -5 -52 55 -141 21 -156 -60 -16 -87
4 -386 44 -660 36 -242 44 -282 82 -380 66 -173 100 -282 121 -389 10 -54 30
-135 43 -180 34 -111 39 -147 27 -178 -24 -62 -113 -107 -188 -93 -78 14 -236
117 -353 230 -111 106 -215 145 -386 145 -134 0 -222 -26 -278 -81 -35 -35
-38 -43 -33 -76 4 -20 12 -42 19 -49 7 -7 63 -29 123 -48 61 -20 157 -62 215
-93 97 -54 123 -75 355 -298 281 -269 366 -343 587 -508 84 -63 171 -134 193
-158 84 -91 141 -227 171 -405 19 -113 15 -352 -11 -699 -8 -110 -19 -326 -25
-479 -12 -330 -62 -933 -96 -1173 l-6 -43 736 0 736 0 0 58 c0 86 -18 365 -31
467 -6 50 -42 279 -79 510 -38 231 -85 530 -104 665 -77 541 -75 628 25 789
47 77 59 130 59 257 0 219 -31 387 -154 836 -90 328 -180 714 -235 1009 -49
260 -72 338 -112 384 -26 29 -38 35 -71 35 -95 0 -105 -33 -73 -255 35 -244
38 -293 26 -374 -13 -81 -34 -131 -56 -131 -39 0 -108 146 -170 360 -41 142
-68 280 -95 475 -33 243 -56 315 -121 370 -66 55 -116 56 -168 3 -44 -45 -47
-80 -17 -205 45 -192 81 -523 57 -523 -20 0 -103 235 -180 507 -49 171 -78
245 -137 340 -50 81 -104 133 -137 133 -13 0 -36 -13 -52 -30z"/>
<path d="M4800 7803 c-48 -19 -73 -63 -155 -278 -112 -291 -133 -325 -195
-325 -20 0 -44 6 -53 13 -27 19 -57 149 -64 272 -3 61 -10 118 -15 128 -15 28
-74 22 -108 -11 -39 -40 -45 -84 -32 -247 7 -84 8 -155 3 -177 -5 -20 -34 -87
-64 -150 -59 -119 -146 -344 -172 -444 -8 -32 -15 -97 -15 -145 0 -111 -14
-180 -93 -469 -82 -298 -264 -1020 -316 -1255 -22 -99 -56 -268 -75 -375 -36
-197 -99 -620 -94 -625 2 -2 208 -6 459 -10 l457 -8 6 49 c3 27 18 177 31 334
53 595 123 1283 151 1490 16 123 71 355 105 444 30 81 75 115 307 230 392 193
665 304 857 346 69 15 95 34 95 68 0 55 -63 96 -162 108 -64 7 -209 -16 -355
-57 -125 -35 -153 -36 -181 -6 -45 48 -24 93 79 163 65 44 390 453 439 552 26
52 21 83 -21 114 -45 34 -71 18 -251 -160 -92 -91 -170 -163 -173 -160 -14 14
61 162 170 340 72 115 77 138 37 178 -35 35 -58 37 -111 11 -39 -20 -51 -36
-176 -231 -80 -124 -242 -294 -289 -303 -46 -8 -76 8 -76 40 0 16 33 123 74
238 84 239 93 272 74 298 -14 18 -72 31 -98 20z"/>
<path d="M11301 7318 c-12 -12 -23 -36 -27 -53 -6 -34 29 -408 48 -510 6 -33
11 -104 11 -157 -1 -126 -25 -181 -93 -215 -72 -37 -129 -32 -234 22 -121 61
-187 60 -289 -5 -54 -34 -72 -67 -51 -91 12 -14 12 -18 -4 -32 -10 -9 -42 -69
-72 -132 -29 -63 -55 -113 -57 -111 -3 3 3 52 12 111 20 131 23 249 5 270 -18
22 -92 20 -113 -3 -22 -24 -39 -74 -88 -260 -61 -231 -126 -388 -185 -443 -41
-38 -48 -17 -55 169 -17 444 -20 460 -82 448 -76 -15 -89 -52 -100 -281 -5
-104 -9 -231 -8 -281 2 -65 -2 -102 -14 -130 -21 -50 -63 -94 -90 -94 -52 0
-87 52 -141 214 -37 110 -63 146 -105 146 -84 0 -90 -100 -19 -287 99 -258 94
-236 81 -353 -6 -58 -18 -133 -27 -165 -47 -179 -59 -373 -29 -455 56 -152 56
-172 -6 -336 -47 -125 -199 -572 -199 -585 0 -5 157 -8 362 -7 l362 3 8 35
c45 208 77 432 87 620 14 232 34 276 204 449 109 111 212 195 308 252 64 39
79 43 152 47 91 5 117 19 117 61 0 40 -27 70 -84 97 -96 45 -232 27 -364 -47
-145 -81 -135 14 38 386 54 116 120 266 148 335 28 69 67 163 86 208 20 46 36
92 36 103 0 10 2 19 5 19 26 0 104 -58 184 -134 53 -51 150 -130 216 -176 235
-162 235 -163 235 -327 0 -59 9 -178 21 -263 28 -204 27 -394 -6 -1058 -14
-288 -25 -541 -25 -563 l0 -39 387 0 386 0 -6 198 c-7 187 -16 333 -52 782 -8
107 -31 314 -50 460 -63 487 -63 514 -6 693 47 149 64 262 67 452 1 101 6 182
13 199 7 17 30 49 51 72 46 51 150 252 150 292 0 38 -26 72 -55 72 -25 0 -61
-39 -169 -183 -32 -43 -67 -82 -77 -87 -31 -17 -84 -12 -105 11 -18 20 -19 36
-16 243 3 181 1 229 -11 259 -25 59 -80 75 -121 34 -22 -22 -23 -31 -28 -236
-3 -117 -10 -217 -15 -222 -27 -27 -58 85 -68 241 -9 137 -29 260 -49 297 -26
50 -90 52 -116 3 -14 -26 -13 -344 2 -431 10 -63 9 -72 -6 -87 -16 -16 -18
-16 -37 6 -31 39 -54 144 -105 478 -10 67 -81 98 -123 52z"/>
<path d="M5656 6254 c-22 -21 -20 -140 3 -266 9 -54 15 -98 12 -98 -4 0 -26
43 -51 97 -24 53 -55 110 -69 126 -35 41 -82 60 -118 46 -53 -20 -55 -49 -12
-146 17 -37 57 -131 89 -208 32 -77 98 -225 148 -330 117 -246 146 -346 106
-362 -8 -3 -56 14 -106 38 -80 37 -102 43 -175 47 -63 3 -94 0 -128 -12 -58
-23 -99 -70 -90 -105 9 -40 32 -51 106 -51 55 0 77 -5 127 -31 158 -82 408
-315 463 -433 27 -58 32 -82 44 -241 8 -97 21 -218 30 -269 17 -108 63 -337
68 -343 2 -2 155 -2 339 -1 l336 3 -83 250 c-46 138 -100 297 -120 354 -41
116 -42 149 -5 235 41 98 37 235 -16 451 -14 55 -27 143 -30 195 l-6 95 51
135 c67 173 84 244 70 293 -18 67 -82 74 -119 14 -11 -17 -34 -77 -51 -132
-25 -80 -39 -107 -69 -137 -21 -21 -43 -38 -48 -38 -21 0 -81 61 -91 93 -5 18
-13 140 -16 272 -7 266 -18 334 -60 361 -32 21 -75 21 -91 0 -8 -11 -14 -94
-18 -259 -8 -290 -11 -317 -36 -317 -46 0 -133 187 -200 428 -51 186 -61 213
-88 245 -19 21 -75 22 -96 1z"/>
<path d="M8545 3450 c-1001 -4 -2504 -10 -3340 -14 -836 -3 -2349 -9 -3362
-13 l-1843 -6 0 -99 0 -100 1263 6 c1243 7 5023 20 8207 31 894 3 2004 8 2468
11 l842 6 0 94 0 94 -1207 -2 c-665 -1 -2027 -5 -3028 -8z"/>
<path d="M2365 2854 c-11 -2 -45 -9 -75 -15 -130 -26 -272 -103 -368 -199 -86
-87 -203 -249 -248 -345 -71 -152 -88 -239 -89 -450 0 -154 4 -193 23 -269 45
-179 147 -350 266 -447 71 -58 195 -122 281 -145 83 -21 245 -29 330 -15 39 7
102 17 140 22 95 14 227 59 305 105 89 51 214 180 268 276 82 144 120 290 129
489 24 524 -232 909 -657 985 -69 12 -258 17 -305 8z m254 -205 c141 -32 301
-169 378 -324 52 -103 65 -172 70 -365 4 -150 2 -189 -16 -275 -43 -210 -158
-376 -312 -450 -83 -39 -138 -49 -80 -14 103 63 210 231 251 394 77 305 -9
669 -197 835 -143 126 -374 161 -542 84 l-55 -25 24 27 c97 103 305 152 479
113z m-108 -159 c165 -51 282 -194 340 -415 29 -114 29 -306 0 -430 -47 -195
-144 -331 -289 -402 -69 -34 -82 -38 -161 -38 -78 0 -93 3 -155 34 -139 68
-256 229 -303 416 -26 102 -25 442 0 535 41 146 160 265 307 306 71 19 189 17
261 -6z m-837 -771 c55 -284 158 -462 339 -590 81 -57 77 -65 -6 -15 -125 76
-206 165 -272 301 -74 153 -105 329 -89 513 l8 97 7 -136 c4 -75 10 -151 13
-170z"/>
<path d="M160 2826 c0 -2 9 -25 20 -50 l19 -46 -44 0 c-27 0 -45 -5 -45 -11 0
-12 21 -76 368 -1144 l189 -580 146 -3 c125 -2 147 0 147 12 0 12 17 16 83 18
l82 3 108 285 c230 604 565 1486 572 1503 7 16 -1 17 -120 15 l-127 -3 -18
-45 -18 -45 -121 -3 c-115 -2 -122 -4 -131 -25 -6 -12 -95 -272 -199 -577
-104 -305 -192 -548 -195 -540 -3 8 -109 290 -234 625 l-229 610 -126 3 c-70
1 -127 1 -127 -2z m368 -964 c166 -438 302 -800 302 -804 0 -5 -26 -8 -57 -8
l-58 0 -82 253 c-155 479 -344 1062 -393 1210 -41 125 -46 147 -32 147 13 0
86 -181 320 -798z m952 795 c0 -18 -469 -1297 -490 -1336 -5 -9 -18 15 -39 69
l-31 82 37 116 c26 86 317 945 358 1060 3 8 29 12 85 12 44 0 80 -1 80 -3z"/>
<path d="M3470 2781 l0 -50 -42 -3 -43 -3 -3 -867 -2 -868 500 0 c438 0 500 2
500 15 0 12 18 15 105 15 l105 0 0 80 c0 44 1 80 3 80 2 0 31 -27 65 -61 138
-134 367 -190 595 -145 40 8 104 20 142 26 249 44 408 187 481 435 16 54 18
125 21 728 l4 667 -121 0 -120 0 0 -50 0 -49 -92 -3 -93 -3 -5 -605 c-5 -599
-5 -606 -28 -668 -58 -162 -155 -240 -308 -250 -183 -12 -311 108 -350 326
-10 59 -13 217 -14 690 l0 613 -122 -3 -123 -3 -3 -47 c-3 -42 -6 -47 -30 -50
l-27 -3 -3 -530 c-3 -653 5 -745 79 -904 16 -35 28 -65 27 -66 -2 -2 -194 0
-428 4 l-425 6 -3 798 -2 797 -120 0 -120 0 0 -49z m0 -926 c0 -530 -3 -805
-10 -805 -7 0 -10 275 -10 805 0 530 3 805 10 805 7 0 10 -275 10 -805z m2188
243 c-4 -531 -5 -567 -24 -629 -42 -135 -117 -221 -227 -258 -33 -12 -65 -21
-70 -21 -5 0 16 22 45 49 65 59 101 123 130 228 21 75 22 99 26 636 l3 557 60
0 60 0 -3 -562z"/>
<path d="M6160 2780 l0 -50 -45 0 -45 0 0 -870 0 -870 130 0 c109 0 130 2 130
15 0 10 10 15 30 15 l30 0 2 568 3 567 68 -115 c38 -63 200 -325 360 -582
l292 -468 137 0 c105 0 137 3 136 13 -2 8 17 13 65 15 l67 3 0 729 0 730 245
0 245 0 0 -745 0 -745 145 0 c122 0 145 2 145 15 0 12 13 15 60 15 l60 0 0
730 0 730 195 0 195 0 0 75 0 76 58 -3 57 -3 3 -817 2 -818 500 0 c438 0 500
2 500 15 0 12 19 15 110 15 91 0 110 -3 110 -15 0 -13 62 -15 500 -15 438 0
500 2 500 15 0 12 19 15 110 15 91 0 110 -3 110 -15 0 -13 22 -15 140 -15 118
0 140 2 140 15 0 9 9 15 25 15 l25 0 0 346 0 346 108 -4 c122 -5 167 -21 221
-84 45 -50 67 -107 102 -254 41 -178 77 -307 95 -346 l16 -34 150 0 150 0 -20
33 c-10 18 -26 56 -35 83 -23 70 -76 274 -71 274 2 0 38 -68 79 -150 41 -83
77 -150 80 -150 3 0 5 112 5 248 l0 248 -38 63 c-50 82 -125 167 -179 201
l-43 27 67 33 c77 38 146 103 173 163 17 37 20 67 20 258 0 211 -1 216 -25
266 -52 104 -170 184 -325 220 -64 15 -125 18 -425 18 l-350 0 -1 -55 c-1 -49
-3 -55 -25 -61 -46 -13 -48 -11 -51 54 l-3 62 -567 3 -568 2 0 -48 c0 -27 -2
-51 -5 -53 -2 -3 -20 -3 -40 -1 -35 4 -35 5 -35 53 l0 49 -1310 0 -1310 0 0
-50 c0 -27 -4 -50 -10 -50 -5 0 -10 23 -10 50 l0 50 -115 0 -115 0 0 -50 0
-50 -85 0 -85 0 -2 -549 -3 -549 -315 596 -315 597 -163 3 -162 2 0 -50z m-5
-925 c0 -630 -3 -799 -12 -803 -10 -3 -13 162 -13 803 0 641 3 806 13 802 9
-3 12 -172 12 -802z m1135 135 c0 -369 -2 -670 -4 -670 -3 0 -26 39 -52 87
l-48 87 -4 583 -5 583 57 0 56 0 0 -670z m2948 -132 c-2 -630 -6 -802 -15
-806 -10 -3 -13 162 -13 802 0 711 2 806 15 806 13 0 15 -93 13 -802z m1214
-12 c-1 -516 -6 -796 -12 -796 -11 0 -15 1582 -4 1593 4 4 10 5 13 3 3 -2 5
-362 3 -800z m-3274 -8 l2 -788 -50 0 -50 0 0 745 0 745 -255 0 -255 0 0 38
c0 21 3 42 7 45 4 4 140 6 302 5 l296 -3 3 -787z m562 747 l0 -45 -160 0 -160
0 0 38 c0 21 3 42 7 45 3 4 75 7 160 7 l153 0 0 -45z m280 -751 c0 -690 -2
-784 -15 -784 -13 0 -15 94 -15 783 0 431 3 787 6 790 4 4 11 4 15 1 5 -3 9
-358 9 -790z m808 749 l3 -43 -285 0 -286 0 0 45 0 45 283 -2 282 -3 3 -42z
m320 -652 c1 -382 -1 -698 -5 -702 -5 -4 -205 -4 -445 -2 l-438 6 0 268 0 269
300 0 300 0 0 55 0 55 130 0 130 0 0 105 0 105 -430 0 -430 0 0 195 0 195 315
0 315 0 0 68 c0 38 3 72 7 76 4 3 61 5 127 4 l121 -3 3 -694z m897 654 l0 -40
-282 -3 -283 -2 0 45 0 45 283 -2 282 -3 0 -40z m323 -654 c1 -382 -1 -698 -5
-702 -5 -4 -205 -5 -445 -2 l-438 6 0 268 0 269 300 0 300 0 0 55 0 55 130 0
130 0 0 105 0 105 -430 0 -430 0 0 195 0 195 315 0 315 0 0 68 c0 38 3 72 7
76 4 3 61 5 127 4 l121 -3 3 -694z m754 688 c69 -15 104 -33 151 -78 62 -58
80 -103 85 -208 7 -149 -41 -253 -139 -303 -50 -26 -54 -25 -31 8 60 84 69
250 19 348 -63 124 -195 184 -404 184 l-103 0 0 30 0 30 185 0 c101 0 208 -5
237 -11z m-5343 -815 c209 -397 383 -729 387 -738 3 -9 2 -16 -4 -16 -12 0
-602 945 -703 1127 l-69 122 0 117 c0 65 2 115 4 113 2 -2 175 -329 385 -725z
m5208 681 c68 -20 132 -70 163 -125 21 -38 25 -58 25 -130 -1 -94 -14 -130
-69 -188 -54 -58 -69 -62 -246 -62 l-160 0 0 259 0 260 23 5 c41 9 211 -3 264
-19z m-2197 -625 c0 -19 -7 -20 -265 -20 -258 0 -265 1 -265 20 0 19 7 20 265
20 258 0 265 -1 265 -20z m1220 0 c0 -19 -7 -20 -265 -20 -258 0 -265 1 -265
20 0 19 7 20 265 20 258 0 265 -1 265 -20z m1096 -94 c76 -24 125 -64 162
-134 29 -53 85 -252 159 -559 5 -22 3 -23 -70 -23 l-75 0 -16 48 c-9 26 -36
133 -61 237 -54 224 -85 295 -156 359 -60 54 -111 71 -254 85 -93 9 -87 9 80
6 130 -2 194 -7 231 -19z"/>
<path d="M10148 235 c-2 -3 -632 -6 -1399 -6 -767 -1 -2224 -5 -3239 -10
-1015 -4 -2665 -11 -3667 -14 l-1823 -7 0 -100 0 -100 1043 6 c1172 7 2601 12
6727 26 1565 5 3332 12 3928 16 l1082 6 0 94 0 94 -1323 0 c-728 0 -1326 -2
-1329 -5z"/>
</g>
</svg>
